<svg id="Calque_2" data-name="Calque 2" xmlns="http://www.w3.org/2000/svg" viewBox="0 0 582.8 635.85"><defs><style>.cls-1{fill:#fff;}.cls-2{stroke:#000;stroke-miterlimit:10;}</style></defs><title>logonoir</title><polygon class="cls-1" points="11.8 352 164.8 126 164.8 264 219.8 202 243.8 321 327.8 177 335.8 192 454.8 0 392.8 287 437.8 227 454.8 298 526.8 241 551.8 331 582.8 370 453.8 476 439.8 381 368.8 429 392.8 345 250.8 531 330.07 273.52 197.8 471 194.64 310.67 166.8 358 165.11 635.85 0 479.85 100.8 356 92.7 293.72 0 423 11.8 352"/><polygon class="cls-2" points="17.56 377.58 149.18 183.58 144.43 584.33 32.43 470.08 210.93 245.08 231.93 380.58 331.43 218.58 340.43 231.33 423.18 93.08 359.18 356.83 433.18 265.08 426.93 361.58 518.43 325.08 514.43 282.83 457.93 326.08 486.43 414.58 561.68 353.08 561.68 358.08 469.43 440.33 449.68 322.83 517.68 272.58 529.93 325.83 399.18 380.83 419.93 291.58 290.93 450.83 403.43 137.58 337.43 250.08 330.68 232.58 215.93 419.83 206.68 260.83 42.68 470.83 139.68 572.08 106.68 256.83 17.39 380.62 17.56 377.58"/></svg>