<svg id="Layer_1" data-name="Layer 1" xmlns="http://www.w3.org/2000/svg" viewBox="0 0 1920 1080"><defs><style>.cls-1{fill:none;stroke:#333;stroke-miterlimit:10;stroke-width:0.25px;}</style></defs><title>linesBackground</title><polyline class="cls-1" points="861.63 1137.99 856.04 1065.08 855.11 992.2 872.23 919.44 852.55 846.44 881.82 773.76 846.88 700.65 878.16 627.99 847.05 554.9 846.82 482.02 847.4 409.15 859.79 336.36 851.33 263.42 866.82 190.65 878.08 117.85 849.01 44.77 887.26 -27.86"/><polyline class="cls-1" points="754.46 1137.93 741.83 1064.97 769.61 992.28 755.22 919.31 780.03 846.61 749.79 773.53 779.93 700.87 761.73 627.87 772.91 555.06 777.75 482.22 787.49 409.41 748.18 336.26 778.87 263.6 745.04 190.49 752.82 117.66 751.79 44.77 759.84 -28.06"/><polyline class="cls-1" points="666.32 1138 670.18 1065.15 680.04 992.34 644.31 919.22 670.4 846.53 684.91 773.76 688.59 700.91 667.26 627.89 646.12 554.87 686.44 482.27 665.63 409.25 658.86 336.32 670.45 263.53 651.91 190.52 647.25 117.61 648.7 44.74 672.8 -27.98"/><polyline class="cls-1" points="551.64 1137.89 564.88 1065.1 555.39 992.16 563.55 919.34 583.19 846.61 558.53 773.57 544.96 700.6 560.86 627.83 584.41 555.12 586.66 482.26 558.99 409.19 592.75 336.54 553.09 263.39 574.85 190.67 576.6 117.8 578.39 44.93 584.9 -27.91"/><polyline class="cls-1" points="447.21 1137.84 472.88 1065.14 481.69 992.33 456.98 919.28 459.9 846.43 470.61 773.63 463.76 700.72 486.54 628 454.86 554.9 468.4 482.12 480.76 409.32 462.66 336.32 457.1 263.41 457.33 190.53 493.74 117.9 489.5 44.99 484.09 -27.93"/><polyline class="cls-1" points="371.07 1137.99 358.67 1065.03 376.55 992.28 388.17 919.48 375.83 846.53 366.2 773.59 351.13 700.62 359.09 627.79 390.31 555.13 357.81 482.03 391.71 409.38 392.27 336.51 373.96 263.51 374.8 190.64 352.82 117.61 373.73 44.87 358.42 -28.12"/><polyline class="cls-1" points="292.41 1138.13 256.16 1065 250.85 992.09 275.23 919.38 279.34 846.54 272.67 773.62 284.97 700.83 295.5 628.03 268.79 554.97 270.21 482.1 278.32 409.28 288.26 336.47 254.13 263.36 272.96 190.61 289.56 117.85 267.31 44.81 291.46 -27.91"/><polyline class="cls-1" points="155.34 1137.86 155.07 1064.98 153.16 992.09 155.01 919.23 168.29 846.45 156.32 773.5 167.15 700.7 159.95 627.77 173.19 554.99 157.67 482 186 409.32 182.32 336.42 192.46 263.61 177.35 190.63 195.77 117.88 188.34 44.94 187.69 -27.95"/><polyline class="cls-1" points="86.85 1138.06 53.57 1064.96 97.48 992.38 73.21 919.34 80.11 846.52 94.37 773.74 55.5 700.61 97.05 628.01 91.83 555.1 78.09 482.13 100.11 409.4 62.53 336.27 68.76 263.44 58.45 190.49 60.46 117.62 100.42 45.01 83.9 -27.99"/><polyline class="cls-1" points="1846.82 1138.03 1826.84 1065.01 1855.48 992.33 1823.72 919.24 1859.68 846.62 1829.6 773.54 1820.05 700.6 1832.81 627.81 1865.1 555.16 1834.51 482.07 1864.07 409.4 1830.36 336.29 1867.82 263.67 1838.04 190.59 1852.96 117.81 1833.39 44.79 1866.15 -27.87"/><polyline class="cls-1" points="1755.89 1138.08 1755.11 1065.19 1747.43 992.27 1722.43 919.22 1765.81 846.65 1739.12 773.59 1726.01 700.63 1749.21 627.91 1730.32 554.9 1766.16 482.27 1759.77 409.35 1732.63 336.29 1726.15 263.37 1758.29 190.71 1749.83 117.77 1748.89 44.88 1760.55 -27.92"/><polyline class="cls-1" points="1643.08 1137.97 1653.7 1065.17 1653.36 992.29 1639.04 919.32 1657.64 846.58 1662.26 773.74 1658.06 700.84 1652.78 627.92 1628.5 554.88 1625.02 481.98 1651.1 409.28 1656.42 336.44 1648.24 263.51 1633.06 190.53 1626.55 117.6 1628.37 44.73 1650.66 -28"/><polyline class="cls-1" points="1564.7 1138.11 1563.65 1065.22 1558.39 992.31 1523.32 919.2 1533.5 846.4 1554.54 773.67 1563.42 700.86 1543.73 627.85 1561.57 555.09 1559.34 482.2 1559.44 409.32 1563.47 336.47 1553.78 263.53 1534.42 190.52 1548.31 117.74 1552.74 44.88 1557.67 -27.97"/><polyline class="cls-1" points="1435.03 1137.89 1453.57 1065.14 1429.22 992.1 1445.31 919.34 1431.58 846.37 1471.99 773.78 1443.08 700.71 1432.14 627.76 1435.86 554.9 1446.98 482.1 1469.22 409.38 1463.84 336.46 1430.54 263.36 1440.97 190.55 1459.99 117.8 1448.61 44.84 1435.07 -28.14"/><polyline class="cls-1" points="1366.5 1138.09 1368.42 1065.23 1348.73 992.22 1340.06 919.29 1349.52 846.48 1372.1 773.76 1371.02 700.88 1332.37 627.74 1336.08 554.89 1375.9 482.29 1352.31 409.25 1374.12 336.52 1348.52 263.47 1372.2 190.75 1366.08 117.83 1341.74 44.78 1342.65 -28.1"/><polyline class="cls-1" points="1264.54 1138.07 1244.58 1065.05 1271.96 992.37 1249.28 919.34 1272.09 846.62 1231.61 773.48 1248.77 700.72 1261.39 627.93 1239.8 554.9 1267.02 482.21 1249.62 409.22 1235.53 336.24 1267.66 263.59 1263.04 190.68 1263.77 117.8 1255.38 44.86 1253.39 -28.04"/><polyline class="cls-1" points="1173.39 1138.11 1158.07 1065.13 1159.4 992.27 1167.36 919.45 1170.98 846.6 1152.68 773.61 1170.18 700.85 1137.71 627.75 1154.15 554.99 1173.57 482.25 1146.71 409.18 1142.76 336.28 1161.63 263.53 1150.33 190.58 1162.14 117.78 1138.28 44.73 1152.4 -28.06"/><polyline class="cls-1" points="1041.53 1137.88 1061.56 1065.14 1043.46 992.14 1072.67 919.47 1040.21 846.38 1058.81 773.63 1076.37 700.88 1041.12 627.76 1036.65 554.86 1046.41 482.05 1068.54 409.32 1065.87 336.42 1043.66 263.4 1075.29 190.74 1058.58 117.74 1051.49 44.81 1075.62 -27.91"/><polyline class="cls-1" points="969.53 1138.06 978.12 1065.24 963.57 992.27 980.97 919.51 960.55 846.5 962.33 773.64 979.36 700.89 960.86 627.89 943.24 554.89 940.65 481.99 973.82 409.34 955.32 336.34 963.55 263.52 965.71 190.66 946.56 117.64 954.08 44.81 946.86 -28.12"/><polyline class="cls-1" points="814.77 1138.01 804.89 1065.07 808.47 992.22 794.86 919.25 818.14 846.54 817.13 773.66 792.11 700.61 797.79 627.78 807.02 554.96 828.57 482.23 822.24 409.31 827.42 336.47 800.45 263.41 817.13 190.65 834.22 117.88 821.03 44.91 797.12 -28.14"/><polyline class="cls-1" points="691.03 1137.83 691.08 1064.96 721.66 992.29 723.3 919.43 717.68 846.52 694.86 773.49 716.45 700.77 726.21 627.96 706.26 554.94 737.57 482.28 704.31 409.18 716.81 336.38 695.55 263.36 731.68 190.73 704.34 117.67 711.61 44.83 741.88 -27.85"/><polyline class="cls-1" points="604.95 1137.91 619.36 1065.14 609.54 992.2 598.77 919.25 632.43 846.61 619.58 773.65 638.49 700.9 617.45 627.88 614.83 554.99 609.11 482.07 638.77 409.4 624.34 336.42 597.43 263.36 622.13 190.65 633.02 117.85 608.2 44.79 625.76 -27.97"/><polyline class="cls-1" points="514.17 1137.96 532.87 1065.22 521.22 992.26 501.87 919.25 496.72 846.35 529.99 773.71 501.9 700.64 509.24 627.81 519.25 555 513.4 482.09 511.34 409.2 525.63 336.42 518.02 263.49 506.92 190.54 528.74 117.81 509.93 44.79 525.7 -27.98"/><polyline class="cls-1" points="419.14 1137.98 432.05 1065.2 435.45 992.35 408.41 919.29 399.86 846.36 427.81 773.68 427.83 700.8 436.59 627.99 400.06 554.86 417.97 482.11 429.53 409.31 428.81 336.43 428.73 263.55 426.86 190.66 444.6 117.9 404.67 44.74 422.81 -28.02"/><polyline class="cls-1" points="297.96 1137.83 297.62 1064.95 342.31 992.38 338.19 919.48 312.3 846.43 324.68 773.64 315.37 700.71 338.11 627.99 338.81 555.11 339.34 482.24 312.56 409.18 305.53 336.25 347.39 263.67 330.1 190.67 323.78 117.75 348.9 45.03 312.69 -28.1"/><polyline class="cls-1" points="237.13 1138.08 222.07 1065.1 221.44 992.22 206.61 919.25 245.02 846.64 243.06 773.75 222.68 700.74 232.73 627.93 209.11 554.9 206 482 226.72 409.26 210.6 336.27 234.09 263.56 228.84 190.65 239 117.83 212.2 44.77 219.71 -28.06"/><polyline class="cls-1" points="114.48 1137.91 105.85 1064.98 119.77 992.2 109.25 919.25 120.56 846.46 120.79 773.59 148.81 700.91 134.52 627.93 129.25 555.02 140.97 482.23 123.68 409.23 142.14 336.48 134.19 263.55 114.32 190.53 109.86 117.62 127.8 44.86 131.9 -27.99"/><polyline class="cls-1" points="47.8 1138.13 17.48 1065.04 41.5 992.33 33.09 919.4 33.73 846.54 39.81 773.71 13.68 700.65 14.75 627.79 37.71 555.07 22.72 482.09 41.73 409.34 38.06 336.44 48.47 263.63 32.43 190.64 54.05 117.91 14.69 44.76 54.41 -27.85"/><polyline class="cls-1" points="1875.97 1137.89 1879.83 1065.04 1888.75 992.23 1889.52 919.36 1881.2 846.43 1885.32 773.59 1886.76 700.72 1905.53 627.98 1876.67 554.9 1883.47 482.07 1872.93 409.12 1897.33 336.41 1909.55 263.62 1875.01 190.5 1888.28 117.72 1893.59 44.87 1875.31 -28.14"/><polyline class="cls-1" points="1784.63 1137.94 1773.7 1064.98 1787.62 992.21 1769.82 919.21 1772.79 846.36 1808.61 773.73 1790.4 700.74 1805.54 627.96 1803.46 555.07 1796.03 482.14 1781.72 409.17 1789.93 336.35 1816.66 263.65 1781.04 190.53 1795.71 117.75 1786.85 44.81 1810.45 -27.91"/><polyline class="cls-1" points="1675.52 1137.86 1705.08 1065.19 1690.68 992.21 1677.55 919.25 1697.48 846.51 1700.54 773.66 1677.47 700.63 1673.46 627.73 1700.88 555.04 1675.28 481.99 1678.73 409.13 1703.16 336.42 1712.93 263.62 1687.12 190.56 1690 117.7 1698.16 44.87 1687.61 -28.08"/><polyline class="cls-1" points="1597.33 1138 1616.27 1065.25 1617.5 992.38 1582.93 919.27 1586.3 846.42 1585.63 773.55 1613.37 700.87 1602.3 627.91 1582.08 554.9 1586.35 482.05 1587.75 409.18 1576.64 336.23 1617.66 263.63 1618.54 190.76 1592.73 117.7 1596.86 44.85 1601.7 -28"/><polyline class="cls-1" points="1490.4 1137.93 1518.49 1065.25 1513.03 992.34 1488.54 919.3 1475.58 846.34 1484.51 773.53 1518.59 700.89 1513.34 627.98 1497.14 554.99 1490.44 482.07 1504.57 409.28 1510.28 336.45 1514.6 263.6 1484.44 190.52 1487.63 117.66 1524.49 45.03 1491.85 -28.08"/><polyline class="cls-1" points="1416.53 1138.1 1387.38 1065.03 1414.46 992.34 1387.15 919.27 1417.71 846.61 1422.1 773.77 1399.21 700.74 1383.81 627.76 1399.89 554.99 1407.84 482.17 1421.88 409.39 1393.14 336.31 1390.68 263.42 1402.91 190.63 1421.11 117.87 1404.48 44.88 1409.56 -27.97"/><polyline class="cls-1" points="1287.36 1137.89 1299.78 1065.1 1293.66 992.18 1314.42 919.45 1280.31 846.34 1293.47 773.56 1323.57 700.9 1303.04 627.88 1297.51 554.96 1298.98 482.1 1284.67 409.12 1291.4 336.29 1323.63 263.63 1324.25 190.76 1323.06 117.87 1313.1 44.92 1329.39 -27.85"/><polyline class="cls-1" points="1193.96 1137.92 1202.18 1065.1 1199.27 992.21 1190.35 919.27 1206.3 846.51 1213.66 773.69 1195.51 700.69 1214.34 627.94 1190.06 554.9 1190.69 482.03 1198.93 409.2 1221.41 336.48 1214.69 263.56 1227.64 190.77 1209.77 117.77 1207.06 44.87 1215.9 -27.96"/><polyline class="cls-1" points="1091.09 1137.89 1084.83 1064.97 1113.25 992.29 1124.89 919.49 1117.53 846.57 1112.55 773.67 1100.43 700.71 1097.35 627.81 1127.92 555.14 1104.87 482.11 1094.84 409.16 1126.22 336.5 1087.99 263.37 1117.49 190.69 1089.12 117.61 1105.2 44.84 1123.09 -27.92"/><polyline class="cls-1" points="1005.1 1137.97 1010.1 1065.13 1019.08 992.31 1009.66 919.37 1028.47 846.63 993.45 773.52 1026.01 700.87 1031.57 628.03 988.84 554.86 1009.58 482.13 1031.86 409.4 1007.84 336.36 1034.75 263.67 1002.76 190.57 997.98 117.66 996.87 44.77 1023.58 -27.93"/><polyline class="cls-1" points="929.14 1138.12 927.92 1065.24 921.74 992.32 904.64 919.33 925.58 846.6 926.26 773.73 900.25 700.68 892.44 627.75 908.46 554.99 905.31 482.09 908.68 409.23 924.38 336.46 899.76 263.42 928.25 190.74 918.57 117.79 909.27 44.84 917.18 -27.99"/><polyline class="cls-1" points="-38.91 -56.83 31.93 -52.2 102.75 -41.51 173.5 -2.13 244.41 -20.75 315.21 -1.63 386.2 -49.42 456.98 -23.1 527.84 -24.91 598.68 -17.84 669.48 2.98 740.48 -50.55 811.17 8.54 882.05 1.09 953.05 -51.66 1023.9 -47.65 1094.63 -1.21 1165.57 -34.45 1236.29 13.57 1307.27 -29.3 1378.06 -2.34 1448.94 -10.38 1519.82 -19.76 1590.77 -52.29 1661.49 -3.38 1732.43 -29.73 1803.37 -57.45 1874.14 -25.77 1945.07 -48.8"/><polyline class="cls-1" points="-38.99 83.72 31.9 71.34 102.81 51.1 173.64 59 244.49 60.51 315.35 60.63 386.22 55.32 456.93 110.38 527.84 88.51 598.65 105.22 669.59 76.05 740.32 121.32 811.34 63.23 882.1 98.53 952.95 101.75 1023.92 58.35 1094.7 86.52 1165.63 55.26 1236.44 74.81 1307.19 111.41 1378.19 60.91 1448.91 113.02 1519.92 57.25 1590.75 69.23 1661.47 118.47 1732.5 57.06 1803.32 73.81 1874.05 121.16 1944.93 115.71"/><polyline class="cls-1" points="-38.9 165.99 31.77 231.14 102.72 198.12 173.48 229.95 244.43 195.94 315.28 198.69 386.24 162.58 456.99 200.66 527.76 231.08 598.63 224.31 669.48 227.45 740.38 210.94 811.36 167.91 882.23 163.86 952.99 198.56 1023.84 199.53 1094.72 189.97 1165.49 220.81 1236.36 217.68 1307.17 234.14 1378.15 189.06 1449.02 185.93 1519.88 184.38 1590.79 167.33 1661.46 236.09 1732.35 223.01 1803.34 176.45 1874.1 217.36 1945 204.04"/><polyline class="cls-1" points="-39.01 318.97 31.8 334.47 102.78 289.63 173.47 347.33 244.39 324.56 315.22 334.14 386.23 276.89 457.03 298.37 527.76 344.78 598.67 325.92 669.65 277.45 740.42 309.69 811.24 323.97 882.14 310.23 952.9 343.74 1023.86 305.91 1094.63 334.94 1165.6 293.77 1236.34 336.28 1307.17 347.37 1378.2 285.63 1448.88 349.85 1519.78 333.71 1590.64 332.68 1661.5 332.58 1732.38 327.01 1803.25 324.71 1874.15 310.49 1944.96 331.81"/><polyline class="cls-1" points="-38.97 417 31.94 394.92 102.64 454.79 173.54 436.74 244.47 410.13 315.26 433.36 386.08 444.13 456.95 440.01 527.87 417.13 598.76 405.83 669.48 454.95 740.48 403.05 811.34 400.26 882.23 389.6 952.89 461.88 1023.84 429.12 1094.8 389.11 1165.57 416.81 1236.41 423.49 1307.23 436.67 1378.15 417.4 1449.04 403.07 1519.93 393.84 1590.64 447.71 1661.48 454.2 1732.48 403.2 1803.27 428.85 1874.23 393.66 1944.98 435.88"/><polyline class="cls-1" points="-38.89 500.53 31.88 530.12 102.76 523.36 173.62 521.08 244.47 522.91 315.29 536.93 386.08 559.06 456.89 574.62 527.93 508.5 598.67 550.61 669.54 544.6 740.41 541.28 811.16 579.47 882.13 537.07 952.97 546.45 1023.83 544.5 1094.59 577.78 1165.65 503.4 1236.41 536.29 1307.32 518.42 1378.08 553.19 1449.02 524.42 1519.73 578.58 1590.71 537.01 1661.53 550.51 1732.33 572.61 1803.31 529.36 1874.07 568.25 1945.1 507.08"/><polyline class="cls-1" points="-38.97 642.13 31.86 652.96 102.66 672.75 173.55 657.04 244.38 666.85 315.24 668.17 386.07 675.34 456.95 666.21 527.92 625.38 598.62 681.65 669.46 688.91 740.4 657.69 811.17 688.83 882.21 621.91 952.88 690.76 1023.88 638.78 1094.66 663.33 1165.58 640.25 1236.41 650.07 1307.26 653.2 1378.09 662.63 1449.01 641.3 1519.9 631.84 1590.65 669.66 1661.51 670.1 1732.4 657.87 1803.33 632.27 1874.19 633.9 1945.09 624.43"/><polyline class="cls-1" points="-38.9 729.38 31.83 776.38 102.65 788.47 173.47 799.52 244.5 737.23 315.36 735.66 386.24 726.67 457.09 729.86 527.94 731.17 598.61 800.13 669.66 729.03 740.35 789.39 811.36 733.65 882.04 798.59 952.88 804.71 1023.78 788.93 1094.77 737.3 1165.6 747.53 1236.36 781.98 1307.21 783.71 1378.07 783.16 1448.95 776.53 1519.85 763.74 1590.59 805.78 1661.61 746.19 1732.31 803.46 1803.3 758.14 1874.13 771.76 1945.09 738.06"/><polyline class="cls-1" points="-39.05 896.12 31.92 857.05 102.65 901.05 173.56 881.66 244.5 850.21 315.21 903.77 386.16 869.21 456.99 878.08 527.86 874.55 598.69 881.22 669.49 901.66 740.51 842.27 811.25 886.37 882.18 859.25 953.04 860.02 1023.76 907.48 1094.61 908.17 1165.46 910.96 1236.31 912.77 1307.19 903.78 1378.18 855.98 1449 869.64 1519.84 879.46 1590.69 882.82 1661.44 919.5 1732.41 881.66 1803.33 860.08 1874.21 855.01 1945.07 855.26"/><polyline class="cls-1" points="-39.06 1013.64 31.86 989.76 102.71 992.46 173.51 1013.35 244.33 1025.69 315.34 969.45 386.06 1020.29 457.08 957.47 527.92 962.84 598.8 954.74 669.63 965.6 740.51 956.79 811.22 1009.74 882.13 991.85 953.04 972.62 1023.73 1032.09 1094.63 1015.68 1165.62 966.95 1236.32 1020.84 1307.28 985.82 1378.21 961.09 1449 982.61 1519.84 993.1 1590.79 958.3 1661.61 973.72 1732.44 984.52 1803.25 1001.37 1874.03 1034.47 1944.9 1030.94"/><polyline class="cls-1" points="-38.93 4.94 31.86 31.6 102.66 49.99 173.51 52.29 244.39 42.52 315.36 1.68 386.22 -1.21 457.06 5.22 527.8 46.46 598.61 63.22 669.49 53.45 740.47 9.09 811.3 20.66 882.05 59.32 953.08 -2.27 1023.76 60.01 1094.59 69.8 1165.57 22.58 1236.37 42.4 1307.25 34.6 1378.18 9.31 1449.08 -5.9 1519.73 71.2 1590.71 26.87 1661.56 29.95 1732.43 24.64 1803.34 9.6 1874.1 47.71 1944.97 43.41"/><polyline class="cls-1" points="-38.99 139.52 31.85 146.98 102.79 114.41 173.53 155.17 244.41 148.17 315.2 170.35 386.08 164.34 457.04 124.51 527.79 163.45 598.67 154.49 669.52 156.24 740.32 177.36 811.26 147.9 882.22 111.32 953 139.53 1023.92 113.69 1094.68 149.84 1165.62 118.58 1236.3 182.14 1307.27 139.1 1378.03 175.29 1449 137.41 1519.92 114.96 1590.66 158.43 1661.52 156.51 1732.49 118.12 1803.31 130.56 1874.21 120.1 1944.93 173.37"/><polyline class="cls-1" points="-38.97 245.1 31.85 258.99 102.67 272.61 173.6 242.91 244.36 278.31 315.34 233.6 386.14 255.26 457.09 221.67 527.83 260.71 598.8 219.12 669.63 231.25 740.52 217.57 811.28 252.99 882.02 296.07 952.99 254.76 1023.78 280.1 1094.59 293.42 1165.61 233.05 1236.35 277.45 1307.19 282.54 1378.05 282.92 1448.91 279.91 1519.94 220.64 1590.62 283.85 1661.64 226.57 1732.44 249.46 1803.31 244.01 1874.2 234.36 1945.1 223.72"/><polyline class="cls-1" points="-38.97 360.32 31.85 372.49 102.72 367.27 173.52 385.38 244.5 342.13 315.24 382.28 386.16 359.72 457.03 354.64 527.84 373.29 598.67 380.59 669.52 383.57 740.36 389.12 811.3 360.22 882.09 384.05 952.97 376.12 1023.94 333.59 1094.61 401.53 1165.5 385.8 1236.46 348.63 1307.15 409.66 1378.15 357.45 1449.07 335.32 1519.78 391.89 1590.73 359.69 1661.55 370.31 1732.43 362.95 1803.26 376.59 1874.06 401.65 1945.01 369.13"/><polyline class="cls-1" points="-38.92 455.98 31.91 462.76 102.65 505.43 173.53 494.53 244.5 453.71 315.33 462.85 386.24 444.04 456.89 518.52 527.8 500.35 598.62 512.13 669.55 486.58 740.48 460.5 811.29 474.57 882.13 482.5 952.95 497.07 1023.83 489.33 1094.61 513.22 1165.65 446.57 1236.37 495.27 1307.25 487.06 1378.19 459.05 1448.92 504.88 1519.85 480.69 1590.78 454.86 1661.5 504.32 1732.4 490.22 1803.21 508.81 1874.17 472.42 1945.08 458.45"/><polyline class="cls-1" points="-39.08 625.29 31.77 627.12 102.82 558.21 173.62 576.88 244.39 606.25 315.34 574.6 386.11 604.7 457.02 584.83 527.89 577.83 598.69 598.82 669.57 593.05 740.42 594.68 811.18 627.79 882.1 604.9 953.02 584.38 1023.88 584.23 1094.74 577.62 1165.6 577.53 1236.49 562.46 1307.31 577.79 1378.06 617.87 1448.98 595.85 1519.89 575.68 1590.74 579.75 1661.64 564.46 1732.4 603.29 1803.28 595.06 1874.22 569.45 1944.92 630.09"/><polyline class="cls-1" points="-38.98 701.87 31.97 668.63 102.78 684.83 173.64 682.91 244.36 729.58 315.2 737.89 386.07 731.22 457.02 699.09 527.91 683.82 598.65 726.99 669.62 686.33 740.32 742.08 811.28 705.68 882.14 703.74 952.96 718.33 1023.91 683.19 1094.77 682.41 1165.55 710.18 1236.41 705.79 1307.28 701.49 1378.22 673.36 1448.88 744.25 1519.73 747.88 1590.65 726.37 1661.57 702.63 1732.47 689.22 1803.19 742.46 1874.05 744.19 1945.04 699.87"/><polyline class="cls-1" points="-38.96 809.09 31.92 800.5 102.8 789.26 173.67 785.07 244.42 823.59 315.35 797 386.23 787.09 456.93 845.98 527.83 828.86 598.78 791.98 669.55 823.74 740.33 852.4 811.26 826.17 882.05 849.99 952.9 851.63 1023.93 791.76 1094.75 802.25 1165.62 794.53 1236.3 861.6 1307.15 861.3 1378.21 788.09 1448.96 830.27 1519.78 843.4 1590.61 853.96 1661.48 849.41 1732.41 825.37 1803.37 790.63 1874.14 821.99 1944.99 827.72"/><polyline class="cls-1" points="-39.06 958.88 31.77 967.19 102.77 914.63 173.59 924.83 244.4 941.63 315.29 929.98 386.17 921.81 456.89 972.83 527.89 918.45 598.72 928.17 669.59 925.16 740.34 961.17 811.37 898.2 882.2 909.28 952.98 935.77 1023.88 922.59 1094.63 959.77 1165.62 911.05 1236.45 919.14 1307.32 913 1378.16 922.03 1448.87 973.78 1519.86 926.86 1590.77 908.52 1661.61 914.37 1732.51 902.47 1803.19 967.15 1874.07 962.84 1944.97 950.81"/><polyline class="cls-1" points="-39.02 1056.06 31.78 1076.62 102.66 1068.72 173.47 1082.1 244.49 1025 315.24 1061.06 386.09 1062.39 457.07 1017.9 527.77 1074.31 598.62 1076.97 669.49 1071.29 740.34 1077.17 811.38 1010.17 882.19 1027.28 952.99 1045.06 1023.86 1042.64 1094.63 1073.04 1165.55 1046.29 1236.39 1052.51 1307.18 1076.81 1378.22 1012.65 1449.04 1024.97 1519.79 1064.91 1590.74 1033.17 1661.61 1030.21 1732.37 1064.15 1803.35 1022.95 1874.22 1021.67 1945.1 1014.25"/></svg>