<svg xmlns="http://www.w3.org/2000/svg" xmlns:xlink="http://www.w3.org/1999/xlink" viewBox="0 0 554.29 415.82"><defs><style>.cls-1,.cls-2{stroke:#404041;stroke-miterlimit:10;}.cls-1{fill:url(#linear-gradient);}.cls-2{fill:url(#linear-gradient-2);}</style><linearGradient id="linear-gradient" x1="481.28" y1="207.13" x2="0.39" y2="207.13" gradientUnits="userSpaceOnUse"><stop offset="0" stop-color="#007539"/><stop offset="0.55" stop-color="#77d0ef"/><stop offset="1" stop-color="#492d88"/></linearGradient><linearGradient id="linear-gradient-2" x1="553.74" y1="197.16" x2="336.23" y2="197.16" xlink:href="#linear-gradient"/></defs><title>logo</title><g id="Layer_2" data-name="Layer 2"><g id="Layer_3" data-name="Layer 3"><polyline class="cls-1" points="480.68 1.75 387.38 159.55 380.02 138.82 275.52 369.3 235 194.46 215.04 328.69 183.13 99.24 114.85 414 59.14 257.06 0.39 330.13 59.29 256.27 59.29 256.27 125.56 362.59 183.14 98.45 222.24 277.61 234.97 194.08 287.3 341.36 379.9 138.44 392.45 150.57 481.28 0.25"/><polyline class="cls-2" points="481.28 0.25 405.97 307.27 497.4 194.48 490.01 304.94 532.88 287.23 508.71 236.72 507.97 309.05 553.74 329.65 551.93 341.89 507.1 309.49 507.86 234.36 543.51 283.49 462.32 317.05 495.36 198.27 336.23 394.07 480.68 1.75"/></g></g></svg>